<svg xmlns="http://www.w3.org/2000/svg" viewBox="0 0 620 520" role="img" aria-label="Relqyn reusable paper towels roll">
  <ellipse cx="314" cy="452" rx="192" ry="22" fill="#b8a78c" opacity=".28"/>
  <g transform="translate(120 62)"><path d="M52 105 C52 74 76 50 107 50 H407 C434 50 454 72 454 101 V307 C454 339 432 364 402 364 H108 C77 364 52 340 52 309Z" fill="#f0e7d5" stroke="#c9b99f" stroke-width="6"/><path d="M67 153 H439 V307 C439 331 422 346 396 346 H110 C85 346 67 330 67 307Z" fill="#d3dfc4"/><path d="M67 153 H439" stroke="#b2c59c" stroke-width="6"/><circle cx="118" cy="101" r="41" fill="#7d9c69" stroke="#54724f" stroke-width="5"/><circle cx="118" cy="101" r="16" fill="#edf0df"/><path d="M118 77v48M94 101h48" stroke="#54724f" stroke-width="5"/><text x="181" y="94" font-family="Arial,sans-serif" font-size="14" letter-spacing="3" fill="#284e3a">RELQYN HOME</text><text x="181" y="132" font-family="Georgia,serif" font-size="27" fill="#193b2a">Reusable towels</text><path d="M107 208 Q154 176 201 208 T295 208 T389 208 M107 248 Q154 216 201 248 T295 248 T389 248 M107 288 Q154 256 201 288 T295 288 T389 288" fill="none" stroke="#f4f1e5" stroke-width="7" opacity=".9"/></g>
</svg>
